<?xml version="1.0" encoding="utf-8"?>
<svg xmlns="http://www.w3.org/2000/svg" xmlns:xlink="http://www.w3.org/1999/xlink" viewBox="0 0 144.083 144">
    <path d="M121.472,73.316c-1.213-23.25-18.547-42.291-41.005-46.161v-3.224c0-4.784-3.892-8.677-8.676-8.677  s-8.676,3.893-8.676,8.677v3.314C40.901,31.31,23.814,50.239,22.611,73.316c-3.575,0.568-6.319,3.664-6.319,7.397  c0,4.136,3.364,7.5,7.5,7.5h11.875l1.617,11.998c-0.085,3.155,1.343,8.736,6.943,11.648l-5.494,12.682  c-0.401,0.927-0.31,1.994,0.244,2.839c0.555,0.844,1.497,1.354,2.507,1.354l24.306,0.011c0.001,0,0.001,0,0.002,0  c1.186,0,2.261-0.699,2.742-1.783l3.527-7.946l6.933-3.033c0.422-0.185,0.796-0.464,1.093-0.816l22.688-26.952h17.517  c4.136,0,7.5-3.364,7.5-7.5C127.792,76.98,125.047,73.885,121.472,73.316z M69.116,23.932c0-1.476,1.2-2.677,2.676-2.677  s2.676,1.201,2.676,2.677v2.554c-0.804-0.039-1.612-0.062-2.426-0.062c-0.983,0-1.957,0.037-2.926,0.094V23.932z M72.042,32.424  c23.075,0,42.002,18.063,43.407,40.79H28.634C30.04,50.486,48.966,32.424,72.042,32.424z M75.948,110.767l-7.359,3.22  c-0.686,0.3-1.235,0.846-1.539,1.531l-3.208,7.227l-17.787-0.008l4.92-11.356c0.348-0.804,0.327-1.719-0.056-2.506  c-0.384-0.787-1.092-1.367-1.938-1.589c-5.758-1.505-5.716-6.488-5.693-7.021c0.012-0.197,0.005-0.395-0.021-0.59l-1.541-11.439  h3.836l3.222,7.553c0.171,0.4,0.428,0.759,0.751,1.051l5.09,4.588c0.722,0.65,1.712,0.912,2.663,0.699l5.66-1.265  c0.503-0.112,0.969-0.353,1.352-0.697l12.895-11.599h17.445L75.948,110.767z M60.87,95.177l-3.381,0.755l-3.447-3.107l-1.967-4.61  h16.536L60.87,95.177z M120.292,82.214h-96.5c-0.827,0-1.5-0.673-1.5-1.5s0.673-1.5,1.5-1.5h96.5c0.827,0,1.5,0.673,1.5,1.5  S121.119,82.214,120.292,82.214z"/>
</svg>
