<?xml version="1.0" encoding="utf-8"?>
<svg xmlns="http://www.w3.org/2000/svg" xmlns:xlink="http://www.w3.org/1999/xlink" viewBox="0 0 50 50">
    <path d="M18 41.578c0 .89-.477 1.422-1.152 1.422-.239 0-.504-.066-.785-.207l-10.899-5.52C4.524 36.95 4 36.09 4 35.367V8.313c0-.715.379-1.137.922-1.137.191 0 .406.05.629.164l.383.195h.003l12.012 6.082c.02.012.035.031.051.047zM30.586 8.883l.734-1.207c.262-.43.742-.676 1.23-.676.114 0 .231.016.345.047.085.02.175.05.27.098l12.667 6.414c.004 0 .004.004.004.004l.012.003c.007.004.007.016.015.02.063.05.09.137.047.207L33.293 34.559l-1.29 2.117-8.358-16.371zM20 30.605V17.562l8.98 17.594-8.078-4.09zm26 10.973c0 .836-.496 1.313-1.227 1.313-.328 0-.703-.094-1.097-.293l-1.809-.918-8.078-4.09L46 17.496z"/>
</svg>
